<mxfile host="app.diagrams.net" modified="2023-09-22T11:59:12.499Z" agent="Mozilla/5.0 (Windows NT 10.0; Win64; x64) AppleWebKit/537.36 (KHTML, like Gecko) Chrome/116.0.0.0 Safari/537.36" etag="-U2a8Gu21hwdPcgR4rKc" version="21.7.5" type="device">
  <diagram name="Страница — 1" id="PAodp95jxtx6Oja-BTSe">
    <mxGraphModel dx="712" dy="748" grid="1" gridSize="10" guides="1" tooltips="1" connect="1" arrows="1" fold="1" page="1" pageScale="1" pageWidth="827" pageHeight="1169" math="0" shadow="0">
      <root>
        <mxCell id="0" />
        <mxCell id="1" parent="0" />
        <mxCell id="LP9E-LmgQldY7c-LbCIE-3" value="" style="edgeStyle=orthogonalEdgeStyle;rounded=0;orthogonalLoop=1;jettySize=auto;html=1;" edge="1" parent="1" source="LP9E-LmgQldY7c-LbCIE-1" target="LP9E-LmgQldY7c-LbCIE-2">
          <mxGeometry relative="1" as="geometry" />
        </mxCell>
        <mxCell id="LP9E-LmgQldY7c-LbCIE-1" value="Start" style="ellipse;whiteSpace=wrap;html=1;" vertex="1" parent="1">
          <mxGeometry x="310" y="20" width="120" height="50" as="geometry" />
        </mxCell>
        <mxCell id="LP9E-LmgQldY7c-LbCIE-5" value="" style="edgeStyle=orthogonalEdgeStyle;rounded=0;orthogonalLoop=1;jettySize=auto;html=1;" edge="1" parent="1" source="LP9E-LmgQldY7c-LbCIE-2" target="LP9E-LmgQldY7c-LbCIE-4">
          <mxGeometry relative="1" as="geometry" />
        </mxCell>
        <mxCell id="LP9E-LmgQldY7c-LbCIE-2" value="SArray" style="rounded=1;whiteSpace=wrap;html=1;" vertex="1" parent="1">
          <mxGeometry x="310" y="100" width="120" height="60" as="geometry" />
        </mxCell>
        <mxCell id="LP9E-LmgQldY7c-LbCIE-9" value="" style="edgeStyle=orthogonalEdgeStyle;rounded=0;orthogonalLoop=1;jettySize=auto;html=1;" edge="1" parent="1" source="LP9E-LmgQldY7c-LbCIE-4" target="LP9E-LmgQldY7c-LbCIE-8">
          <mxGeometry relative="1" as="geometry" />
        </mxCell>
        <mxCell id="LP9E-LmgQldY7c-LbCIE-4" value="string arrayA&lt;br&gt;String arrayB&lt;br&gt;int count = 0" style="shape=parallelogram;perimeter=parallelogramPerimeter;whiteSpace=wrap;html=1;fixedSize=1;rounded=1;" vertex="1" parent="1">
          <mxGeometry x="295" y="190" width="150" height="60" as="geometry" />
        </mxCell>
        <mxCell id="LP9E-LmgQldY7c-LbCIE-11" value="" style="edgeStyle=orthogonalEdgeStyle;rounded=0;orthogonalLoop=1;jettySize=auto;html=1;" edge="1" parent="1" source="LP9E-LmgQldY7c-LbCIE-8" target="LP9E-LmgQldY7c-LbCIE-10">
          <mxGeometry relative="1" as="geometry" />
        </mxCell>
        <mxCell id="LP9E-LmgQldY7c-LbCIE-13" value="" style="edgeStyle=orthogonalEdgeStyle;rounded=0;orthogonalLoop=1;jettySize=auto;html=1;" edge="1" parent="1" source="LP9E-LmgQldY7c-LbCIE-8" target="LP9E-LmgQldY7c-LbCIE-12">
          <mxGeometry relative="1" as="geometry" />
        </mxCell>
        <mxCell id="LP9E-LmgQldY7c-LbCIE-15" value="" style="edgeStyle=orthogonalEdgeStyle;rounded=0;orthogonalLoop=1;jettySize=auto;html=1;" edge="1" parent="1" source="LP9E-LmgQldY7c-LbCIE-8" target="LP9E-LmgQldY7c-LbCIE-14">
          <mxGeometry relative="1" as="geometry" />
        </mxCell>
        <mxCell id="LP9E-LmgQldY7c-LbCIE-8" value="for&amp;nbsp;&lt;br&gt;int i = 0&lt;br&gt;i &amp;lt; arrayA.length&lt;br&gt;i++" style="shape=hexagon;perimeter=hexagonPerimeter2;whiteSpace=wrap;html=1;fixedSize=1;rounded=1;" vertex="1" parent="1">
          <mxGeometry x="310" y="280" width="120" height="80" as="geometry" />
        </mxCell>
        <mxCell id="LP9E-LmgQldY7c-LbCIE-16" style="edgeStyle=orthogonalEdgeStyle;rounded=0;orthogonalLoop=1;jettySize=auto;html=1;entryX=0.5;entryY=1;entryDx=0;entryDy=0;" edge="1" parent="1" source="LP9E-LmgQldY7c-LbCIE-10" target="LP9E-LmgQldY7c-LbCIE-12">
          <mxGeometry relative="1" as="geometry">
            <Array as="points">
              <mxPoint x="530" y="470" />
            </Array>
          </mxGeometry>
        </mxCell>
        <mxCell id="LP9E-LmgQldY7c-LbCIE-18" style="edgeStyle=orthogonalEdgeStyle;rounded=0;orthogonalLoop=1;jettySize=auto;html=1;exitX=0;exitY=0.5;exitDx=0;exitDy=0;entryX=0;entryY=0.75;entryDx=0;entryDy=0;" edge="1" parent="1" source="LP9E-LmgQldY7c-LbCIE-10" target="LP9E-LmgQldY7c-LbCIE-8">
          <mxGeometry relative="1" as="geometry">
            <Array as="points">
              <mxPoint x="285" y="470" />
              <mxPoint x="285" y="337" />
            </Array>
          </mxGeometry>
        </mxCell>
        <mxCell id="LP9E-LmgQldY7c-LbCIE-10" value="arrayA[i].length &amp;lt;= 3" style="rhombus;whiteSpace=wrap;html=1;rounded=1;" vertex="1" parent="1">
          <mxGeometry x="305" y="410" width="130" height="120" as="geometry" />
        </mxCell>
        <mxCell id="LP9E-LmgQldY7c-LbCIE-12" value="arrayB[count] = arrayA[i]&lt;br&gt;count++" style="whiteSpace=wrap;html=1;rounded=1;" vertex="1" parent="1">
          <mxGeometry x="470" y="290" width="120" height="60" as="geometry" />
        </mxCell>
        <mxCell id="LP9E-LmgQldY7c-LbCIE-14" value="END" style="ellipse;whiteSpace=wrap;html=1;rounded=1;" vertex="1" parent="1">
          <mxGeometry x="120" y="290" width="80" height="60" as="geometry" />
        </mxCell>
        <mxCell id="LP9E-LmgQldY7c-LbCIE-17" value="yes" style="text;html=1;align=center;verticalAlign=middle;resizable=0;points=[];autosize=1;strokeColor=none;fillColor=none;" vertex="1" parent="1">
          <mxGeometry x="460" y="438" width="40" height="30" as="geometry" />
        </mxCell>
        <mxCell id="LP9E-LmgQldY7c-LbCIE-19" value="NO" style="text;html=1;strokeColor=none;fillColor=none;align=center;verticalAlign=middle;whiteSpace=wrap;rounded=0;" vertex="1" parent="1">
          <mxGeometry x="230" y="390" width="50" height="30" as="geometry" />
        </mxCell>
      </root>
    </mxGraphModel>
  </diagram>
</mxfile>
